# MagicaVoxel @ Ephtracy

# group
o 

# material
mtllib bazooka.mtl
usemtl palette

# normals
vn -1 0 0
vn 1 0 0
vn 0 0 1
vn 0 0 -1
vn 0 -1 0
vn 0 1 0

# texcoords
vt 0.310547 0.5
vt 0.591797 0.5
vt 0.990234 0.5
vt 0.994141 0.5

# verts
v -1.8 0.2 0.0999999
v -1.8 0.2 -0.4
v -1.8 0.4 -0.1
v -1.8 0.4 -0.2
v -1.8 0.5 -0.1
v -1.8 0.5 -0.2
v -1.8 0.7 0.0999999
v -1.8 0.7 -0.4
v -1.6 0 -0.1
v -1.6 0 -0.2
v -1.6 0.2 -0.1
v -1.6 0.2 -0.2
v -1.6 0.6 -0.1
v -1.6 0.6 -0.2
v -1.6 0.8 -0.1
v -1.6 0.8 -0.2
v -0.2 0.6 -0.1
v -0.2 0.6 -0.2
v -0.2 0.7 -0.1
v -0.2 0.7 -0.2
v -1.7 0.2 0.0999999
v -1.7 0.2 -0.1
v -1.7 0.2 -0.2
v -1.7 0.2 -0.4
v -1.7 0.3 -7.45058e-08
v -1.7 0.3 -0.1
v -1.7 0.3 -0.2
v -1.7 0.3 -0.3
v -1.7 0.6 -7.45058e-08
v -1.7 0.6 -0.3
v -1.7 0.7 0.0999999
v -1.7 0.7 -0.4
v -1.5 0 -0.1
v -1.5 0 -0.2
v -1.5 0.3 -0.1
v -1.5 0.3 -0.2
v -1.5 0.6 -0.1
v -1.5 0.6 -0.2
v -1.5 0.8 -0.1
v -1.5 0.8 -0.2
v 0.3 0.6 -0.1
v 0.3 0.6 -0.2
v 0.3 0.7 -0.1
v 0.3 0.7 -0.2
v 1.8 0.3 -7.45058e-08
v 1.8 0.3 -0.3
v 1.8 0.4 -0.1
v 1.8 0.4 -0.2
v 1.8 0.5 -0.1
v 1.8 0.5 -0.2
v 1.8 0.6 -7.45058e-08
v 1.8 0.6 -0.3
v -1.8 0.2 0.0999999
v -1.8 0.7 0.0999999
v -1.7 0.2 0.0999999
v -1.7 0.7 0.0999999
v -1.7 0.3 -7.45058e-08
v -1.7 0.6 -7.45058e-08
v -0.8 0.3 -7.45058e-08
v -0.8 0.6 -7.45058e-08
v 1.8 0.3 -7.45058e-08
v 1.8 0.6 -7.45058e-08
v -1.7 0.2 -0.1
v -1.7 0.3 -0.1
v -1.6 0 -0.1
v -1.6 0.2 -0.1
v -1.6 0.3 -0.1
v -1.6 0.6 -0.1
v -1.6 0.8 -0.1
v -1.5 0 -0.1
v -1.5 0.3 -0.1
v -1.5 0.6 -0.1
v -1.5 0.8 -0.1
v -0.2 0.6 -0.1
v -0.2 0.7 -0.1
v 0.3 0.6 -0.1
v 0.3 0.7 -0.1
v -1.8 0.4 -0.2
v -1.8 0.5 -0.2
v -0.8 0.4 -0.2
v -0.8 0.5 -0.2
v 1.8 0.4 -0.2
v 1.8 0.5 -0.2
v -1.8 0.4 -0.1
v -1.8 0.5 -0.1
v -0.8 0.4 -0.1
v -0.8 0.5 -0.1
v 1.8 0.4 -0.1
v 1.8 0.5 -0.1
v -1.7 0.2 -0.2
v -1.7 0.3 -0.2
v -1.6 0 -0.2
v -1.6 0.2 -0.2
v -1.6 0.3 -0.2
v -1.6 0.6 -0.2
v -1.6 0.8 -0.2
v -1.5 0 -0.2
v -1.5 0.3 -0.2
v -1.5 0.6 -0.2
v -1.5 0.8 -0.2
v -0.2 0.6 -0.2
v -0.2 0.7 -0.2
v 0.3 0.6 -0.2
v 0.3 0.7 -0.2
v -1.7 0.3 -0.3
v -1.7 0.6 -0.3
v -0.8 0.3 -0.3
v -0.8 0.6 -0.3
v 1.8 0.3 -0.3
v 1.8 0.6 -0.3
v -1.8 0.2 -0.4
v -1.8 0.7 -0.4
v -1.7 0.2 -0.4
v -1.7 0.7 -0.4
v -1.6 0 -0.1
v -1.5 0 -0.1
v -1.6 0 -0.2
v -1.5 0 -0.2
v -1.8 0.2 0.0999999
v -1.7 0.2 0.0999999
v -1.7 0.2 -0.1
v -1.6 0.2 -0.1
v -1.7 0.2 -0.2
v -1.6 0.2 -0.2
v -1.8 0.2 -0.4
v -1.7 0.2 -0.4
v -1.7 0.3 -7.45058e-08
v -0.8 0.3 -7.45058e-08
v 1.8 0.3 -7.45058e-08
v -1.7 0.3 -0.1
v -1.6 0.3 -0.1
v -1.5 0.3 -0.1
v -1.7 0.3 -0.2
v -1.6 0.3 -0.2
v -1.5 0.3 -0.2
v -1.7 0.3 -0.3
v -0.8 0.3 -0.3
v 1.8 0.3 -0.3
v -1.8 0.5 -0.1
v -0.8 0.5 -0.1
v 1.8 0.5 -0.1
v -1.8 0.5 -0.2
v -0.8 0.5 -0.2
v 1.8 0.5 -0.2
v -1.8 0.4 -0.1
v -0.8 0.4 -0.1
v 1.8 0.4 -0.1
v -1.8 0.4 -0.2
v -0.8 0.4 -0.2
v 1.8 0.4 -0.2
v -1.7 0.6 -7.45058e-08
v -0.8 0.6 -7.45058e-08
v 1.8 0.6 -7.45058e-08
v -1.6 0.6 -0.1
v -1.5 0.6 -0.1
v -0.2 0.6 -0.1
v 0.3 0.6 -0.1
v -1.6 0.6 -0.2
v -1.5 0.6 -0.2
v -0.2 0.6 -0.2
v 0.3 0.6 -0.2
v -1.7 0.6 -0.3
v -0.8 0.6 -0.3
v 1.8 0.6 -0.3
v -1.8 0.7 0.0999999
v -1.7 0.7 0.0999999
v -0.2 0.7 -0.1
v 0.3 0.7 -0.1
v -0.2 0.7 -0.2
v 0.3 0.7 -0.2
v -1.8 0.7 -0.4
v -1.7 0.7 -0.4
v -1.6 0.8 -0.1
v -1.5 0.8 -0.1
v -1.6 0.8 -0.2
v -1.5 0.8 -0.2

# faces
f 3/3/1 2/3/1 1/3/1
f 4/3/1 2/3/1 3/3/1
f 5/3/1 3/3/1 1/3/1
f 6/3/1 2/3/1 4/3/1
f 7/3/1 5/3/1 1/3/1
f 7/3/1 6/3/1 5/3/1
f 8/3/1 2/3/1 6/3/1
f 8/3/1 6/3/1 7/3/1
f 11/1/1 10/1/1 9/1/1
f 12/1/1 10/1/1 11/1/1
f 15/4/1 14/4/1 13/4/1
f 16/4/1 14/4/1 15/4/1
f 19/1/1 18/1/1 17/1/1
f 20/1/1 18/1/1 19/1/1
f 21/3/2 22/3/2 25/3/2
f 25/3/2 22/3/2 26/3/2
f 23/3/2 24/3/2 27/3/2
f 27/3/2 24/3/2 28/3/2
f 21/3/2 25/3/2 29/3/2
f 28/3/2 24/3/2 30/3/2
f 21/3/2 29/3/2 31/3/2
f 29/3/2 30/3/2 31/3/2
f 30/3/2 24/3/2 32/3/2
f 31/3/2 30/3/2 32/3/2
f 33/1/2 34/1/2 35/1/2
f 35/1/2 34/1/2 36/1/2
f 37/4/2 38/4/2 39/4/2
f 39/4/2 38/4/2 40/4/2
f 41/1/2 42/1/2 43/1/2
f 43/1/2 42/1/2 44/1/2
f 45/2/2 46/2/2 47/2/2
f 47/2/2 46/2/2 48/2/2
f 45/2/2 47/2/2 49/2/2
f 48/2/2 46/2/2 50/2/2
f 45/2/2 49/2/2 51/2/2
f 49/2/2 50/2/2 51/2/2
f 50/2/2 46/2/2 52/2/2
f 51/2/2 50/2/2 52/2/2
f 55/3/3 54/3/3 53/3/3
f 56/3/3 54/3/3 55/3/3
f 59/3/3 58/3/3 57/3/3
f 60/3/3 58/3/3 59/3/3
f 61/2/3 60/2/3 59/2/3
f 62/2/3 60/2/3 61/2/3
f 66/3/3 64/3/3 63/3/3
f 67/3/3 64/3/3 66/3/3
f 70/1/3 66/1/3 65/1/3
f 70/1/3 67/1/3 66/1/3
f 71/1/3 67/1/3 70/1/3
f 72/4/3 69/4/3 68/4/3
f 73/4/3 69/4/3 72/4/3
f 76/1/3 75/1/3 74/1/3
f 77/1/3 75/1/3 76/1/3
f 80/3/3 79/3/3 78/3/3
f 81/3/3 79/3/3 80/3/3
f 82/2/3 81/2/3 80/2/3
f 83/2/3 81/2/3 82/2/3
f 84/3/4 85/3/4 86/3/4
f 86/3/4 85/3/4 87/3/4
f 86/2/4 87/2/4 88/2/4
f 88/2/4 87/2/4 89/2/4
f 90/3/4 91/3/4 93/3/4
f 93/3/4 91/3/4 94/3/4
f 92/1/4 93/1/4 97/1/4
f 93/1/4 94/1/4 97/1/4
f 97/1/4 94/1/4 98/1/4
f 95/4/4 96/4/4 99/4/4
f 99/4/4 96/4/4 100/4/4
f 101/1/4 102/1/4 103/1/4
f 103/1/4 102/1/4 104/1/4
f 105/3/4 106/3/4 107/3/4
f 107/3/4 106/3/4 108/3/4
f 107/2/4 108/2/4 109/2/4
f 109/2/4 108/2/4 110/2/4
f 111/3/4 112/3/4 113/3/4
f 113/3/4 112/3/4 114/3/4
f 117/1/5 116/1/5 115/1/5
f 118/1/5 116/1/5 117/1/5
f 121/3/5 120/3/5 119/3/5
f 123/3/5 121/3/5 119/3/5
f 123/3/5 122/3/5 121/3/5
f 124/3/5 122/3/5 123/3/5
f 125/3/5 123/3/5 119/3/5
f 126/3/5 123/3/5 125/3/5
f 130/3/5 128/3/5 127/3/5
f 131/3/5 128/3/5 130/3/5
f 132/3/5 128/3/5 131/3/5
f 135/3/5 128/3/5 132/3/5
f 136/3/5 134/3/5 133/3/5
f 136/3/5 135/3/5 134/3/5
f 137/2/5 129/2/5 128/2/5
f 137/3/5 135/3/5 136/3/5
f 137/3/5 128/3/5 135/3/5
f 138/2/5 129/2/5 137/2/5
f 142/3/5 140/3/5 139/3/5
f 143/2/5 141/2/5 140/2/5
f 143/3/5 140/3/5 142/3/5
f 144/2/5 141/2/5 143/2/5
f 145/3/6 146/3/6 148/3/6
f 146/2/6 147/2/6 149/2/6
f 148/3/6 146/3/6 149/3/6
f 149/2/6 147/2/6 150/2/6
f 151/3/6 152/3/6 154/3/6
f 154/3/6 152/3/6 155/3/6
f 152/2/6 153/2/6 156/2/6
f 156/2/6 153/2/6 157/2/6
f 151/3/6 154/3/6 158/3/6
f 155/3/6 152/3/6 159/3/6
f 152/2/6 156/2/6 160/2/6
f 157/2/6 153/2/6 161/2/6
f 151/3/6 158/3/6 162/3/6
f 158/3/6 159/3/6 162/3/6
f 160/2/6 161/2/6 163/2/6
f 162/3/6 159/3/6 163/3/6
f 152/2/6 160/2/6 163/2/6
f 159/3/6 152/3/6 163/3/6
f 161/2/6 153/2/6 164/2/6
f 163/2/6 161/2/6 164/2/6
f 167/1/6 168/1/6 169/1/6
f 169/1/6 168/1/6 170/1/6
f 165/3/6 166/3/6 171/3/6
f 171/3/6 166/3/6 172/3/6
f 173/4/6 174/4/6 175/4/6
f 175/4/6 174/4/6 176/4/6
